{"accessors" : [{"bufferView" : 0, "byteOffset" : 0, "componentType" : 5123, "count" : 1632, "type" : "SCALAR", "max" : [288], "min" : [0]}, {"bufferView" : 1, "byteOffset" : 0, "componentType" : 5126, "count" : 289, "type" : "VEC3", "max" : [1, 1, 0.195090293884277], "min" : [-1, -0.999999821186066, -0.912951529026031]}, {"bufferView" : 1, "byteOffset" : 12, "componentType" : 5126, "count" : 289, "type" : "VEC3", "max" : [1.00000441074371, 1.00000441074371, 0.0979994237422943], "min" : [-1.00000441074371, -1.00000441074371, -1.00000441074371]}, {"bufferView" : 0, "byteOffset" : 3264, "componentType" : 5123, "count" : 6, "type" : "SCALAR", "max" : [3], "min" : [0]}, {"bufferView" : 2, "byteOffset" : 0, "componentType" : 5126, "count" : 4, "type" : "VEC3", "max" : [1, 1, 0], "min" : [-1, -1, 0]}, {"bufferView" : 2, "byteOffset" : 12, "componentType" : 5126, "count" : 4, "type" : "VEC3", "max" : [0, 0, 1.00000441074371], "min" : [0, 0, 1.00000441074371]}, {"bufferView" : 0, "byteOffset" : 3276, "componentType" : 5123, "count" : 6, "type" : "SCALAR", "max" : [3], "min" : [0]}, {"bufferView" : 3, "byteOffset" : 0, "componentType" : 5126, "count" : 4, "type" : "VEC3", "max" : [1, 1, 0], "min" : [-1, -1, 0]}, {"bufferView" : 3, "byteOffset" : 12, "componentType" : 5126, "count" : 4, "type" : "VEC3", "max" : [0, 0, 1.00000441074371], "min" : [0, 0, 1.00000441074371]}], "asset" : {"generator" : "Aspose.3D 20.2.1", "version" : "2.0"}, "buffers" : [{"uri" : "buffer.bin", "byteLength" : 10432}], "bufferViews" : [{"buffer" : 0, "byteOffset" : 0, "byteLength" : 3288, "target" : 34963}, {"buffer" : 0, "byteOffset" : 3292, "byteLength" : 6936, "byteStride" : 24, "target" : 34962}, {"buffer" : 0, "byteOffset" : 10232, "byteLength" : 96, "byteStride" : 24, "target" : 34962}, {"buffer" : 0, "byteOffset" : 10332, "byteLength" : 96, "byteStride" : 24, "target" : 34962}], "cameras" : [{"perspective" : {"aspectRatio" : 1.777778, "yfov" : 0.857556008794351, "zfar" : 100, "znear" : 0.1}, "type" : "perspective"}], "materials" : [{"pbrMetallicRoughness" : {"baseColorFactor" : [0.64, 0.64, 0.64, 1], "metallicFactor" : 0, "roughnessFactor" : 0}, "emissiveFactor" : [0, 0, 0], "alphaMode" : "OPAQUE", "doubleSided" : false}], "meshes" : [{"primitives" : [{"attributes" : {"POSITION" : 1, "NORMAL" : 2}, "indices" : 0, "material" : 0, "mode" : 4}]}, {"primitives" : [{"attributes" : {"POSITION" : 4, "NORMAL" : 5}, "indices" : 3, "mode" : 4}]}, {"primitives" : [{"attributes" : {"POSITION" : 7, "NORMAL" : 8}, "indices" : 6, "mode" : 4}]}], "nodes" : [{"camera" : 0, "matrix" : [0.6858805, 0.7276338, -0.01081674, 0, -0.3173701, 0.3124686, 0.8953432, 0, 0.6548619, -0.6106656, 0.4452454, 0, 4.586772, -3.808619, 3.37577, 1], "name" : "Camera"}, {"matrix" : [1, 0, 0, 0, 0, 1, 0, 0, 0, 0, 1, 0, 0.667704, 0.03459877, 1.048738, 1], "mesh" : 0, "name" : "Sphere"}, {"matrix" : [356, 0, 0, 0, 0, 356, 0, 0, 0, 0, 356, 0, 0.6393809, -0.9324501, 0.129396, 1], "mesh" : 1, "name" : "Plane"}, {"matrix" : [4.021523, 3.99192E-07, -2.971085, 0, -3.99192E-07, 5, 1.31467E-07, 0, 2.971085, 1.31467E-07, 4.021523, 0, 7.63677, -0.9324499, 5.653009, 1], "mesh" : 2, "name" : "Plane_001"}], "scene" : 0, "scenes" : [{"nodes" : [0, 1, 2, 3]}]}