{"accessors" : [{"bufferView" : 0, "byteOffset" : 0, "componentType" : 5123, "count" : 102912, "type" : "SCALAR", "max" : [17361], "min" : [0]}, {"bufferView" : 1, "byteOffset" : 0, "componentType" : 5126, "count" : 17362, "type" : "VEC3", "max" : [0.539631009101868, 0.543649017810822, 0.540292978286743], "min" : [-0.48285499215126, -0.478835999965668, -0.0217080004513264]}, {"bufferView" : 1, "byteOffset" : 12, "componentType" : 5126, "count" : 17362, "type" : "VEC3", "max" : [0.999986708164215, 0.999986708164215, 1.00000441074371], "min" : [-0.999986708164215, -0.99998664855957, -1.00000441074371]}, {"bufferView" : 1, "byteOffset" : 24, "componentType" : 5126, "count" : 17362, "type" : "VEC2", "max" : [1, 0], "min" : [0, -1]}], "asset" : {"generator" : "Aspose.3D 20.2.1", "version" : "2.0"}, "buffers" : [{"uri" : "buffer.bin", "byteLength" : 761416}], "bufferViews" : [{"buffer" : 0, "byteOffset" : 0, "byteLength" : 205824, "target" : 34963}, {"buffer" : 0, "byteOffset" : 205828, "byteLength" : 555584, "byteStride" : 32, "target" : 34962}], "cameras" : [{"perspective" : {"aspectRatio" : 0.6, "yfov" : 0.698131700797732, "zfar" : 1000, "znear" : 0.01}, "type" : "perspective"}], "meshes" : [{"primitives" : [{"attributes" : {"POSITION" : 1, "NORMAL" : 2, "TEXCOORD_0" : 3}, "indices" : 0, "mode" : 4}]}], "nodes" : [{"camera" : 0, "matrix" : [0.909961, 0, 0.414693, 0, 0.260975, 0.777146, -0.572657, 0, -0.322277, 0.62932, 0.707173, 0, -0.876971, 2.027214, 1.954223, 1], "name" : "Kamera"}, {"matrix" : [1, 0, 0, 0, 0, 0, -1, 0, 0, 1, 0, 0, 0, 0, 0, 1], "mesh" : 0, "name" : "bowl"}], "scene" : 0, "scenes" : [{"nodes" : [0, 1]}]}