{"accessors" : [{"bufferView" : 0, "byteOffset" : 0, "componentType" : 5123, "count" : 6, "type" : "SCALAR", "max" : [3], "min" : [0]}, {"bufferView" : 1, "byteOffset" : 0, "componentType" : 5126, "count" : 4, "type" : "VEC3", "max" : [7.50598192214966, 7.12847280502319, 1.06154000759125], "min" : [-6.75896883010864, -7.13647890090942, 1.06154000759125]}, {"bufferView" : 1, "byteOffset" : 12, "componentType" : 5126, "count" : 4, "type" : "VEC3", "max" : [0, 0, 1.00000441074371], "min" : [0, 0, 1.00000441074371]}, {"bufferView" : 0, "byteOffset" : 12, "componentType" : 5123, "count" : 64512, "type" : "SCALAR", "max" : [10753], "min" : [0]}, {"bufferView" : 2, "byteOffset" : 0, "componentType" : 5126, "count" : 10754, "type" : "VEC3", "max" : [2.31146907806396, 1.85416197776794, 1.79693496227264], "min" : [-1.45282602310181, -1.91013300418854, 0.288301795721054]}, {"bufferView" : 2, "byteOffset" : 12, "componentType" : 5126, "count" : 10754, "type" : "VEC3", "max" : [1.00000441074371, 1.00000441074371, 1.00000441074371], "min" : [-1.00000441074371, -1.00000441074371, -1.00000441074371]}, {"bufferView" : 0, "byteOffset" : 129036, "componentType" : 5123, "count" : 12, "type" : "SCALAR", "max" : [7], "min" : [0]}, {"bufferView" : 3, "byteOffset" : 0, "componentType" : 5126, "count" : 8, "type" : "VEC3", "max" : [7.50598192214966, 7.56416702270508, 11.7422895431519], "min" : [-6.75896883010864, -3.02954006195068, 1.06154000759125]}, {"bufferView" : 3, "byteOffset" : 12, "componentType" : 5126, "count" : 8, "type" : "VEC3", "max" : [1.00000441074371, 0, 1.00000441074371], "min" : [0, 0, 0]}], "asset" : {"generator" : "Aspose.3D 20.2.1", "version" : "2.0"}, "buffers" : [{"uri" : "buffer.bin", "byteLength" : 387460}], "bufferViews" : [{"buffer" : 0, "byteOffset" : 0, "byteLength" : 129060, "target" : 34963}, {"buffer" : 0, "byteOffset" : 129064, "byteLength" : 96, "byteStride" : 24, "target" : 34962}, {"buffer" : 0, "byteOffset" : 129164, "byteLength" : 258096, "byteStride" : 24, "target" : 34962}, {"buffer" : 0, "byteOffset" : 387264, "byteLength" : 192, "byteStride" : 24, "target" : 34962}], "cameras" : [{"orthographic" : {"xmag" : 1, "ymag" : 1, "zfar" : 100, "znear" : 0.1}, "type" : "orthographic"}], "materials" : [{"pbrMetallicRoughness" : {"baseColorFactor" : [0.64, 0.64, 0.64, 1], "metallicFactor" : 0, "roughnessFactor" : 0}, "emissiveFactor" : [0, 0, 0], "alphaMode" : "OPAQUE", "doubleSided" : false}, {"pbrMetallicRoughness" : {"baseColorFactor" : [0.64, 0.64, 0.64, 1], "metallicFactor" : 0, "roughnessFactor" : 0}, "emissiveFactor" : [0, 0, 0], "alphaMode" : "OPAQUE", "doubleSided" : false}, {"pbrMetallicRoughness" : {"baseColorFactor" : [0.64, 0.64, 0.64, 1], "metallicFactor" : 0, "roughnessFactor" : 0}, "emissiveFactor" : [0, 0, 0], "alphaMode" : "OPAQUE", "doubleSided" : false}], "meshes" : [{"primitives" : [{"attributes" : {"POSITION" : 1, "NORMAL" : 2}, "indices" : 0, "material" : 0, "mode" : 4}]}, {"primitives" : [{"attributes" : {"POSITION" : 4, "NORMAL" : 5}, "indices" : 3, "material" : 1, "mode" : 4}]}, {"primitives" : [{"attributes" : {"POSITION" : 7, "NORMAL" : 8}, "indices" : 6, "material" : 2, "mode" : 4}]}], "nodes" : [{"camera" : 0, "matrix" : [-6.39758E-07, 1, 0, 0, -0.4999996, -3.19879E-07, 0.8660257, 0, 0.8660257, 5.54047E-07, 0.4999996, 0, 4.913604, 0.18805, 6.607035, 1], "name" : "Camera"}, {"matrix" : [0.4226178, 0, -0.906308, 0, 0, 1, 0, 0, 0.906308, 0, 0.4226178, 0, 9.416718, -0.2059828, 11.99212, 1], "mesh" : 0, "name" : "Plane"}, {"matrix" : [1, 0, 0, 0, 0, 1, 0, 0, 0, 0, 1, 0, 0.2394645, 0.2050427, 2.51129, 1], "mesh" : 1, "name" : "Bowl"}, {"matrix" : [1, 0, 0, 0, 0, 1, 0, 0, 0, 0, 1, 0, -2.624954, -2.068833, 1.738543, 1], "mesh" : 2, "name" : "Plane_001"}], "scene" : 0, "scenes" : [{"nodes" : [0, 1, 2, 3]}]}